# xmcd CD database file
# Copyright (C) 1993-1998 Ti Kan
#
# Track frame offsets:
#	150
#	17350
#	38840
#	49575
#	63412
#	81832
#	93707
#	111807
#	124745
#	134075
#	151245
#	163960
#
# Disc length: 2462 seconds
#
# Revision: 0
# Processed by: cddbd v1.4b41PL1 Copyright (c) Steve Scherf et al.
# Submitted via: CDmax 1.5
#
DISCID=9d099c0c
DTITLE=Jo Ann Kelly - Jo Ann
DYEAR=1900
DGENRE=
TTITLE0=Can't Be Satisfied
TTITLE1=Wide Open Road
TTITLE2=Death Have Mercy
TTITLE3=Moon Going Down
TTITLE4=River Jordan
TTITLE5=You've Changed
TTITLE6=Little More Time
TTITLE7=Love Blind
TTITLE8=Jonah In The Belly Of The Whale
TTITLE9=Sugar Babe
TTITLE10=Rising Sun Shine On
TTITLE11=Come See About Me
EXTD=
EXTT0=
EXTT1=
EXTT2=
EXTT3=
EXTT4=
EXTT5=
EXTT6=
EXTT7=
EXTT8=
EXTT9=
EXTT10=
EXTT11=
PLAYORDER=
